<svg width="65" height="32" viewBox="0 0 65 32" fill="none" xmlns="http://www.w3.org/2000/svg">
<g clip-path="url(#clip0_2407_1879)">
<path d="M30.9634 7.37764C30.7042 6.20852 31.4462 5.0276 32.6435 5.00241C34.6245 4.96073 36.5944 5.45492 38.3375 6.45219C40.7128 7.81114 42.4962 10.0067 43.3396 12.61C44.183 15.2133 44.0257 18.0376 42.8984 20.5311C41.7712 23.0247 39.7549 25.0086 37.2435 26.0954C34.732 27.1821 31.9056 27.2938 29.3162 26.4084C26.7269 25.5231 24.5605 23.7044 23.2401 21.3074C21.9197 18.9105 21.5402 16.1075 22.1757 13.4457C22.642 11.4924 23.6303 9.71809 25.0169 8.30258C25.8548 7.4471 27.2236 7.71464 27.8984 8.70393C28.5732 9.69321 28.279 11.0288 27.5574 11.9845C27.008 12.7121 26.609 13.5509 26.3937 14.4527C26.0088 16.0651 26.2387 17.7631 27.0385 19.2151C27.8383 20.667 29.1507 21.7688 30.7192 22.3051C32.2878 22.8414 33.9999 22.7738 35.5213 22.1154C37.0426 21.4571 38.264 20.2553 38.9469 18.7448C39.6297 17.2343 39.725 15.5235 39.2141 13.9464C38.7032 12.3694 37.6229 11.0395 36.184 10.2162C35.3793 9.75583 34.4947 9.47242 33.5882 9.37483C32.3975 9.24665 31.2226 8.54676 30.9634 7.37764Z" fill="#F69C85"/>
</g>
<defs>
<clipPath id="clip0_2407_1879">
<rect x="0.875" width="64" height="32" rx="16" fill="white"/>
</clipPath>
</defs>
</svg>
