<svg width="375" height="421" viewBox="0 0 375 421" fill="none" xmlns="http://www.w3.org/2000/svg">
<g filter="url(#filter0_d_14_2744)">
<path d="M351 210.5C351 300.799 277.799 374 187.5 374C97.2014 374 24 300.799 24 210.5C24 120.201 97.2014 47 187.5 47C277.799 47 351 120.201 351 210.5ZM73.05 210.5C73.05 273.709 124.291 324.95 187.5 324.95C250.709 324.95 301.95 273.709 301.95 210.5C301.95 147.291 250.709 96.05 187.5 96.05C124.291 96.05 73.05 147.291 73.05 210.5Z" fill="#F3F3F3"/>
<path d="M351 210.5C351 300.799 277.799 374 187.5 374C97.2014 374 24 300.799 24 210.5C24 120.201 97.2014 47 187.5 47C277.799 47 351 120.201 351 210.5ZM73.05 210.5C73.05 273.709 124.291 324.95 187.5 324.95C250.709 324.95 301.95 273.709 301.95 210.5C301.95 147.291 250.709 96.05 187.5 96.05C124.291 96.05 73.05 147.291 73.05 210.5Z" fill="url(#paint0_radial_14_2744)"/>
<path d="M351 210.5C351 300.799 277.799 374 187.5 374C97.2014 374 24 300.799 24 210.5C24 120.201 97.2014 47 187.5 47C277.799 47 351 120.201 351 210.5ZM73.05 210.5C73.05 273.709 124.291 324.95 187.5 324.95C250.709 324.95 301.95 273.709 301.95 210.5C301.95 147.291 250.709 96.05 187.5 96.05C124.291 96.05 73.05 147.291 73.05 210.5Z" fill="url(#paint1_radial_14_2744)"/>
</g>
<path d="M181.12 71.2452C180.885 64.5335 186.144 58.8517 192.853 59.1542C227.578 60.7203 260.86 74.1594 287.016 97.4228C316.212 123.39 334.287 159.603 337.489 198.545C340.69 237.487 328.773 276.167 304.21 306.554C279.646 336.941 244.325 356.702 205.577 361.734C166.829 366.766 127.631 356.684 96.1209 333.58C64.6104 310.475 43.2076 276.123 36.3555 237.656C29.5034 199.188 37.7282 159.559 59.3227 126.995C78.6686 97.8218 107.413 76.3268 140.586 65.9425C146.995 63.9362 153.531 68.0862 155.019 74.6351C156.507 81.184 152.378 87.6432 146.001 89.7469C118.918 98.6801 95.4805 116.475 79.5911 140.436C61.4517 167.789 54.5428 201.078 60.2986 233.391C66.0544 265.704 84.0328 294.559 110.502 313.967C136.97 333.375 169.896 341.844 202.445 337.617C234.993 333.389 264.663 316.79 285.296 291.265C305.929 265.74 315.94 233.249 313.251 200.538C310.561 167.827 295.378 137.408 270.853 115.595C249.37 96.4881 222.165 85.2708 193.699 83.552C186.995 83.1472 181.354 77.9569 181.12 71.2452Z" fill="#FCFCFC"/>
<path d="M181.12 71.2452C180.885 64.5335 186.143 58.8518 192.852 59.1545C211.397 59.9913 229.668 64.2203 246.748 71.6669C263.827 79.1135 279.36 89.6225 292.594 102.641C297.382 107.351 296.797 115.07 291.72 119.466C286.643 123.862 279.001 123.261 274.142 118.625C263.335 108.313 250.778 99.9551 237.028 93.9602C223.278 87.9653 208.609 84.453 193.699 83.5523C186.995 83.1474 181.354 77.9569 181.12 71.2452Z" fill="#FBD7CE"/>
<path d="M308.367 278.688C314.243 281.938 316.412 289.369 312.702 294.968C302.74 309.999 290.164 323.166 275.54 333.827C260.916 344.488 244.532 352.433 227.174 357.317C220.709 359.136 214.298 354.798 213.001 348.209C211.704 341.619 216.018 335.283 222.454 333.365C236.343 329.228 249.455 322.747 261.214 314.175C272.972 305.603 283.154 295.103 291.343 283.146C295.138 277.605 302.49 275.437 308.367 278.688Z" fill="#BDE1E0"/>
<ellipse cx="46.8194" cy="213.881" rx="2.27395" ry="2.28012" transform="rotate(-90 46.8194 213.881)" fill="#F3F3F3"/>
<ellipse cx="2.27448" cy="2.28012" rx="2.27448" ry="2.28012" transform="matrix(0.208451 -0.978033 0.978262 0.207373 46.4698 186.482)" fill="#F3F3F3"/>
<ellipse cx="2.27599" cy="2.28012" rx="2.27599" ry="2.28012" transform="matrix(0.407657 -0.913135 0.913954 0.405817 54.5415 157.858)" fill="#F3F3F3"/>
<ellipse cx="2.27821" cy="2.28012" rx="2.27821" ry="2.28012" transform="matrix(0.588828 -0.808258 0.809774 0.586743 68.4048 131.533)" fill="#F3F3F3"/>
<ellipse cx="2.28076" cy="2.28012" rx="2.28076" ry="2.28012" transform="matrix(0.744046 -0.668129 0.670132 0.742242 87.4563 108.657)" fill="#F3F3F3"/>
<ellipse cx="2.28321" cy="2.28012" rx="2.28321" ry="2.28012" transform="matrix(0.866611 -0.498984 0.501017 0.865438 110.856 90.2318)" fill="#F3F3F3"/>
<ellipse cx="2.28512" cy="2.28012" rx="2.28512" ry="2.28012" transform="matrix(0.951302 -0.30826 0.309775 0.95081 137.588 77.0616)" fill="#F3F3F3"/>
<ellipse cx="6.01593" cy="6" rx="6.01593" ry="6" transform="matrix(0.994551 0.104249 -0.104809 0.994492 194.274 64.5331)" fill="#F67554"/>
<ellipse cx="2.27821" cy="2.28012" rx="2.27821" ry="2.28012" transform="matrix(0.588828 0.808258 -0.809774 0.586743 298.986 122.334)" fill="#F3F3F3"/>
<ellipse cx="2.27599" cy="2.28012" rx="2.27599" ry="2.28012" transform="matrix(0.407657 0.913135 -0.913954 0.405817 314.914 147.471)" fill="#F3F3F3"/>
<ellipse cx="2.27448" cy="2.28012" rx="2.27448" ry="2.28012" transform="matrix(0.208451 0.978033 -0.978262 0.207373 325.254 175.361)" fill="#F3F3F3"/>
<ellipse cx="327.274" cy="207.059" rx="2.27395" ry="2.28012" transform="rotate(90 327.274 207.059)" fill="#F3F3F3"/>
<ellipse cx="2.27448" cy="2.28012" rx="2.27448" ry="2.28012" transform="matrix(-0.208451 0.978033 -0.978262 -0.207373 327.623 234.458)" fill="#F3F3F3"/>
<ellipse cx="2.27599" cy="2.28012" rx="2.27599" ry="2.28012" transform="matrix(-0.407657 0.913135 -0.913954 -0.405817 319.552 263.083)" fill="#F3F3F3"/>
<ellipse cx="2.28617" cy="2.28012" rx="2.28617" ry="2.28012" transform="matrix(-0.994551 0.104249 -0.104809 -0.994492 207.612 351.219)" fill="#F3F3F3"/>
<ellipse cx="2.28617" cy="2.28012" rx="2.28617" ry="2.28012" transform="matrix(-0.994551 -0.104249 0.104809 -0.994492 177.819 352.408)" fill="#F3F3F3"/>
<ellipse cx="2.28512" cy="2.28012" rx="2.28512" ry="2.28012" transform="matrix(-0.951302 -0.30826 0.309775 -0.95081 148.432 347.393)" fill="#F3F3F3"/>
<ellipse cx="2.28321" cy="2.28012" rx="2.28321" ry="2.28012" transform="matrix(-0.866611 -0.498984 0.501017 -0.865438 120.729 336.394)" fill="#F3F3F3"/>
<ellipse cx="2.28076" cy="2.28012" rx="2.28076" ry="2.28012" transform="matrix(-0.744046 -0.668129 0.670132 -0.742242 95.9265 319.891)" fill="#F3F3F3"/>
<ellipse cx="2.27821" cy="2.28012" rx="2.27821" ry="2.28012" transform="matrix(-0.588828 -0.808258 0.809774 -0.586743 75.1071 298.606)" fill="#F3F3F3"/>
<ellipse cx="2.27599" cy="2.28012" rx="2.27599" ry="2.28012" transform="matrix(-0.407657 -0.913135 0.913954 -0.405817 59.1797 273.47)" fill="#F3F3F3"/>
<ellipse cx="2.27448" cy="2.28012" rx="2.27448" ry="2.28012" transform="matrix(-0.208451 -0.978033 0.978262 -0.207373 48.839 245.58)" fill="#F3F3F3"/>
<ellipse cx="6.17569" cy="6.16216" rx="6.17569" ry="6.16216" transform="matrix(0.951302 0.30826 -0.309775 0.95081 225.662 69.4397)" fill="#F67554"/>
<ellipse cx="6.17052" cy="6.16216" rx="6.17052" ry="6.16216" transform="matrix(0.866611 0.498984 -0.501017 0.865438 253.364 80.439)" fill="#F67554"/>
<ellipse cx="6.16391" cy="6.16216" rx="6.16391" ry="6.16216" transform="matrix(0.744046 0.668129 -0.670132 0.742242 278.167 96.9414)" fill="#F67554"/>
<ellipse cx="6.157" cy="6.16216" rx="6.157" ry="6.16216" transform="matrix(-0.588828 0.808258 -0.809774 -0.586743 305.688 293.516)" fill="#E4F2F2"/>
<ellipse opacity="0.76" cx="6.16391" cy="6.16216" rx="6.16391" ry="6.16216" transform="matrix(-0.744046 0.668129 -0.670132 -0.742242 286.637 316.392)" fill="#097B77"/>
<ellipse cx="6.17052" cy="6.16216" rx="6.17052" ry="6.16216" transform="matrix(-0.866611 0.498984 -0.501017 -0.865438 263.237 334.817)" fill="#E4F2F2"/>
<ellipse cx="6.17569" cy="6.16216" rx="6.17569" ry="6.16216" transform="matrix(-0.951302 0.30826 -0.309775 -0.95081 236.506 347.987)" fill="#E4F2F2"/>
<path d="M165.122 11.516L162.84 12.888L162.098 11.67L165.206 9.794H166.732V20H165.122V11.516ZM172.3 20.112C171.236 20.112 170.284 19.748 169.668 19.188C169.038 18.628 168.646 17.858 168.548 17.032L170.102 16.752C170.144 17.298 170.368 17.76 170.76 18.11C171.152 18.474 171.656 18.67 172.3 18.67C172.986 18.67 173.63 18.418 174.05 17.83C174.26 17.55 174.372 17.2 174.372 16.794C174.372 16.276 174.176 15.856 173.812 15.548C173.434 15.254 172.972 15.1 172.426 15.1C172.02 15.1 171.698 15.17 171.432 15.31L170.676 14.12L173.686 11.236H168.87V9.794H175.786V11.138L172.986 13.784C174.876 13.882 176.08 15.184 176.052 16.766C176.052 17.816 175.604 18.698 174.918 19.244C174.232 19.804 173.308 20.112 172.3 20.112ZM181.513 9.794H188.051V11.25H183.109V14.078H187.603V15.534H183.109V18.544H188.093V20H181.513V9.794ZM191.442 16.598V20H189.888V9.388H191.442V15.786H191.456L194.158 13.042H196.272L193.122 16.192L196.44 20H194.382L191.484 16.598H191.442ZM197.504 11.502C197.308 11.306 197.196 11.068 197.196 10.788C197.196 10.494 197.308 10.256 197.504 10.06C197.7 9.85 197.938 9.752 198.218 9.752C198.512 9.752 198.75 9.85 198.946 10.06C199.142 10.256 199.24 10.494 199.24 10.788C199.24 11.068 199.142 11.306 198.946 11.502C198.75 11.698 198.512 11.81 198.218 11.81C197.938 11.81 197.7 11.698 197.504 11.502ZM197.448 20V13.042H199.002V20H197.448ZM205.649 20V16.094C205.649 15.044 205.173 14.358 204.165 14.358C203.675 14.358 203.311 14.512 203.045 14.834C202.765 15.17 202.625 15.59 202.625 16.122V20H201.071V13.042H202.583V13.98C202.793 13.7 203.031 13.476 203.311 13.308C203.577 13.14 203.815 13.014 204.025 12.958C204.235 12.916 204.459 12.888 204.669 12.888C205.663 12.888 206.377 13.266 206.811 14.022C207.161 13.63 207.525 13.35 207.903 13.154C208.281 12.972 208.715 12.888 209.233 12.888C210.087 12.888 210.759 13.196 211.165 13.7C211.571 14.218 211.767 14.89 211.767 15.702V20H210.213V16.08C210.213 15.03 209.751 14.358 208.729 14.358C208.253 14.358 207.875 14.512 207.609 14.834C207.329 15.156 207.189 15.59 207.189 16.108V20H205.649Z" fill="#343131"/>
<defs>
<filter id="filter0_d_14_2744" x="8" y="43" width="351" height="351" filterUnits="userSpaceOnUse" color-interpolation-filters="sRGB">
<feFlood flood-opacity="0" result="BackgroundImageFix"/>
<feColorMatrix in="SourceAlpha" type="matrix" values="0 0 0 0 0 0 0 0 0 0 0 0 0 0 0 0 0 0 127 0" result="hardAlpha"/>
<feOffset dx="-4" dy="8"/>
<feGaussianBlur stdDeviation="6"/>
<feComposite in2="hardAlpha" operator="out"/>
<feColorMatrix type="matrix" values="0 0 0 0 0.501888 0 0 0 0 0.171633 0 0 0 0 0.0863355 0 0 0 0.05 0"/>
<feBlend mode="normal" in2="BackgroundImageFix" result="effect1_dropShadow_14_2744"/>
<feBlend mode="normal" in="SourceGraphic" in2="effect1_dropShadow_14_2744" result="shape"/>
</filter>
<radialGradient id="paint0_radial_14_2744" cx="0" cy="0" r="1" gradientUnits="userSpaceOnUse" gradientTransform="translate(39.5 110) rotate(41.0613) scale(108.089)">
<stop stop-color="white"/>
<stop offset="0.979167" stop-color="white" stop-opacity="0"/>
</radialGradient>
<radialGradient id="paint1_radial_14_2744" cx="0" cy="0" r="1" gradientUnits="userSpaceOnUse" gradientTransform="translate(298 374) rotate(-132.837) scale(177.964)">
<stop offset="0.00111343" stop-color="white"/>
<stop offset="0.979167" stop-color="white" stop-opacity="0"/>
</radialGradient>
</defs>
</svg>
