<svg width="304" height="304" viewBox="0 0 304 304" fill="none" xmlns="http://www.w3.org/2000/svg">
<path d="M147.12 12.2452C146.885 5.5335 152.144 -0.148319 158.853 0.154244C193.578 1.72028 226.86 15.1594 253.016 38.4228C282.212 64.3901 300.287 100.603 303.489 139.545C306.69 178.487 294.773 217.167 270.21 247.554C245.646 277.941 210.325 297.702 171.577 302.734C132.829 307.766 93.6313 297.684 62.1209 274.58C30.6104 251.475 9.20763 217.123 2.3555 178.656C-4.49663 140.188 3.72822 100.559 25.3227 67.9949C44.6686 38.8218 73.4135 17.3268 106.586 6.94248C112.995 4.93618 119.531 9.0862 121.019 15.6351C122.507 22.184 118.378 28.6432 112.001 30.7469C84.9183 39.6801 61.4805 57.4748 45.5911 81.4357C27.4517 108.789 20.5428 142.078 26.2986 174.391C32.0544 206.704 50.0328 235.559 76.5015 254.967C102.97 274.375 135.896 282.844 168.445 278.617C200.993 274.389 230.663 257.79 251.296 232.265C271.929 206.74 281.94 174.249 279.251 141.538C276.561 108.827 261.378 78.4077 236.853 56.5952C215.37 37.4881 188.165 26.2708 159.699 24.552C152.995 24.1472 147.354 18.9569 147.12 12.2452Z" fill="#FCFCFC"/>
</svg>
