<svg width="351" height="351" viewBox="0 0 351 351" fill="none" xmlns="http://www.w3.org/2000/svg">
<g filter="url(#filter0_d_2428_18)">
<path d="M343 167.5C343 257.799 269.799 331 179.5 331C89.2014 331 16 257.799 16 167.5C16 77.2014 89.2014 4 179.5 4C269.799 4 343 77.2014 343 167.5ZM65.05 167.5C65.05 230.709 116.291 281.95 179.5 281.95C242.709 281.95 293.95 230.709 293.95 167.5C293.95 104.291 242.709 53.05 179.5 53.05C116.291 53.05 65.05 104.291 65.05 167.5Z" fill="#F3F3F3"/>
<path d="M343 167.5C343 257.799 269.799 331 179.5 331C89.2014 331 16 257.799 16 167.5C16 77.2014 89.2014 4 179.5 4C269.799 4 343 77.2014 343 167.5ZM65.05 167.5C65.05 230.709 116.291 281.95 179.5 281.95C242.709 281.95 293.95 230.709 293.95 167.5C293.95 104.291 242.709 53.05 179.5 53.05C116.291 53.05 65.05 104.291 65.05 167.5Z" fill="url(#paint0_radial_2428_18)"/>
<path d="M343 167.5C343 257.799 269.799 331 179.5 331C89.2014 331 16 257.799 16 167.5C16 77.2014 89.2014 4 179.5 4C269.799 4 343 77.2014 343 167.5ZM65.05 167.5C65.05 230.709 116.291 281.95 179.5 281.95C242.709 281.95 293.95 230.709 293.95 167.5C293.95 104.291 242.709 53.05 179.5 53.05C116.291 53.05 65.05 104.291 65.05 167.5Z" fill="url(#paint1_radial_2428_18)"/>
</g>
<defs>
<filter id="filter0_d_2428_18" x="0" y="0" width="351" height="351" filterUnits="userSpaceOnUse" color-interpolation-filters="sRGB">
<feFlood flood-opacity="0" result="BackgroundImageFix"/>
<feColorMatrix in="SourceAlpha" type="matrix" values="0 0 0 0 0 0 0 0 0 0 0 0 0 0 0 0 0 0 127 0" result="hardAlpha"/>
<feOffset dx="-4" dy="8"/>
<feGaussianBlur stdDeviation="6"/>
<feComposite in2="hardAlpha" operator="out"/>
<feColorMatrix type="matrix" values="0 0 0 0 0.501888 0 0 0 0 0.171633 0 0 0 0 0.0863355 0 0 0 0.05 0"/>
<feBlend mode="normal" in2="BackgroundImageFix" result="effect1_dropShadow_2428_18"/>
<feBlend mode="normal" in="SourceGraphic" in2="effect1_dropShadow_2428_18" result="shape"/>
</filter>
<radialGradient id="paint0_radial_2428_18" cx="0" cy="0" r="1" gradientUnits="userSpaceOnUse" gradientTransform="translate(31.5 67) rotate(41.0613) scale(108.089)">
<stop stop-color="white"/>
<stop offset="0.979167" stop-color="white" stop-opacity="0"/>
</radialGradient>
<radialGradient id="paint1_radial_2428_18" cx="0" cy="0" r="1" gradientUnits="userSpaceOnUse" gradientTransform="translate(290 331) rotate(-132.837) scale(177.964)">
<stop offset="0.00111343" stop-color="white"/>
<stop offset="0.979167" stop-color="white" stop-opacity="0"/>
</radialGradient>
</defs>
</svg>
